<?xml version="1.0" encoding="utf-8"?>
<!-- Generator: Adobe Illustrator 26.0.0, SVG Export Plug-In . SVG Version: 6.00 Build 0)  -->
<svg version="1.1" id="Layer_1" xmlns="http://www.w3.org/2000/svg" xmlns:xlink="http://www.w3.org/1999/xlink" x="0px" y="0px"
	 viewBox="0 0 1200 1000" style="enable-background:new 0 0 1200 1000;" xml:space="preserve">
<style type="text/css">
	.st0{fill:#110D15;}
	.st1{fill:#FAD12D;}
	.st2{fill:#E5A915;}
	.st3{fill:#FCFCF9;}
	.st4{fill:#45BB39;}
</style>
<g>
	<g>
		<g>
			<g>
				<path class="st0" d="M976.53,385.46c-15.14-21.49-38.01-45.98-63.46-55.97c-3.49-1.37-7.07-2.54-10.76-3.85
					c-0.53-6.63-1.79-13.07-3.24-19.46c-3.13-13.79-7.89-27.07-12.71-40.34c-11.76-32.35-27.12-62.85-46.52-91.3
					c-13.16-19.3-28.41-36.75-46.33-51.78c-83.2-69.78-212.04-71.51-306.26-24.34c-43.87,21.97-87.5,44.42-131.01,67.09
					c-30.5,15.88-91.95,39.5-78.05,84.99c2.68,8.76,6.77,16.83,11.62,24.56c4.24,6.77,9.22,12.97,14.49,18.82
					c-0.48,1.48-1.61,2.16-2.47,3.03c-6.23,6.25-12.14,12.79-17.5,19.81c-52.89,69.4-78.31,177.81-38.85,259.03
					c13.52,27.84,33.58,50.39,57.37,69.81c46.56,38,107.7,56.69,166.51,64.23c127.72,16.37,265.73-16.82,351.34-118.82
					c21.66-25.8,39.18-54.97,52.01-86.11c7.19-17.43,13.37-35.21,17.86-53.56c1.56,0.34,2.54,1.4,3.71,2.15
					c13.52,8.61,28.06,11.44,43.72,7.55C969.41,453.2,998.04,416,976.53,385.46z"/>
				<path class="st1" d="M356.84,310.02c15.28,8.15,31.73,11.4,48.85,11.1c15.84-0.27,31.39-2.91,46.56-7.55
					c25.32-7.75,50.02-17.17,74.21-27.95c20.62-9.19,41.46-17.77,63.41-23.39c18.89-4.84,37.88-8.11,57.51-4.77
					c0.41-1.59,0.04-2.93-0.19-4.29c-1.15-6.9-2.01-13.83-2.14-20.83c-0.3-15.68,2.81-30.79,7.81-45.55
					c3.5-10.32,7.72-20.32,14.13-29.25c5.23-7.28,11.89-12.5,20.75-14.66c3.26-0.8,5.76,0.23,7.77,2.75
					c2.17,2.73,2.26,6.27,0.22,9.77c-2.03,3.5-4.53,6.72-6.23,10.41c-7.96,17.34-11.71,35.32-9.37,54.52
					c2.67,21.88,12.66,39.3,30.37,52.34c0.49,0.36,0.94,1.13,1.95,0.49c0.18-0.5,0.41-1.14,0.64-1.79
					c2.15-6.03,4.33-12.04,7.51-17.65c4.51-7.98,11.3-12.18,20.4-12.53c3.68-0.14,7.24,0.56,9.98,3.44
					c4.29,4.5,3.37,10.26-2.12,13.02c-1.74,0.87-3.5,1.74-5.33,2.42c-3.16,1.19-6.08,2.8-8.86,4.66
					c-5.86,3.92-10.78,8.73-14.06,15.12c1.72,1.76,3.65,2.9,5.5,4.14c14.73,9.86,31.37,14.95,48.36,19
					c13.43,3.21,27.11,5.18,40.65,7.83c21.09,4.13,42.41,6.86,63.56,10.62c0.66,0.12,1.39,0.26,2.05-0.24
					c-0.72-8.79-3.29-16.88-9.16-23.67c-8.69-10.05-19.16-16.34-33-14.52c-12.04,1.59-24.01,3.6-36.03,5.35
					c-6.91,1.01-13.84,2.03-20.87,1.24c-2.14-0.24-4.13-0.79-5.81-2.12c-3.56-2.81-3.31-7.24,0.47-9.79
					c1.77-1.19,3.77-1.77,5.76-2.39c15.95-4.95,32.13-9.12,48.06-14.14c8.13-2.56,16.49-4.34,25.16-2.7
					c0.7,0.13,1.53,0.86,2.33-0.02c-0.03-0.38,0.03-0.82-0.09-1.2c-5.31-16.64-11.81-32.77-20.97-47.71
					c-2.7-4.4-5.45-8.8-9.02-12.58c-6.24-6.59-11.32-7.32-18.93-2.53c-4.49,2.82-8.81,5.92-13.2,8.9c-1.39,0.94-2.76,1.86-4.4,2.38
					c-4.52,1.44-8.15-1.15-8.25-5.89c-0.06-2.89,1.12-5.45,2.17-8.01c2.06-5.03,4.3-9.98,5.86-15.2c2.89-9.65,1.47-18.52-5.04-26.34
					c-2.86-3.44-6.04-6.64-9.53-9.45c-22.58-18.19-48.11-30.63-75.87-38.65c-12.08-3.49-24.35-5.99-36.93-6.95
					c-7.11-0.55-14.21-1.25-21.35-1.36c-1.54-0.02-3.04-0.08-4.4,0.94c-3.13,2.33-6.31,4.62-9.52,6.84
					c-3.88,2.68-5.49,6.46-5.82,11.04c-1.19,16.61-2.51,33.21-2.53,49.88c0,2.14-0.41,4.19-0.99,6.19c-0.55,1.91-1.57,3.66-3.83,4
					c-2.32,0.35-4.08-0.7-5.41-2.5c-1.26-1.71-1.96-3.67-2.41-5.74c-1.37-6.26-2.69-12.54-4.16-18.78
					c-1.59-6.77-2.97-13.62-6.03-19.94c-2.64-5.47-7.12-8.02-13.18-7.83c-2.4,0.08-4.7,0.51-6.87,1.6
					c-11.44,5.77-23.27,10.75-34.49,16.95c-6.01,3.32-11.81,6.94-16.47,12.11c-4.55,5.03-6.59,10.36-4.93,17.52
					c2.59,11.12,4.9,22.3,8.5,33.16c0.58,1.76,0.72,3.57,0.41,5.38c-0.38,2.23-1.59,3.76-3.81,4.55c-2.15,0.77-3.8,0.03-5.33-1.36
					c-1.26-1.14-2.25-2.46-2.94-4.03c-1.3-2.93-2.62-5.84-4-8.73c-3.25-6.79-6.36-13.67-10.82-19.81
					c-4.76-6.55-11.18-9.31-19.25-8.65c-5.77,0.48-10.76,2.88-15.49,5.87c-6.49,4.1-12.95,8.27-19.23,12.68
					c-9.49,6.66-18.92,13.38-29.44,18.38c-4.53,2.15-9.07,4.3-13.51,6.64c-7.71,4.06-6.59,5.84-6.31,12.47
					c0.02,0.41,0.18,0.82,0.26,1.23c0.86,4.23,1.81,8.45,2.54,12.71c0.65,3.86,1.21,7.76,0.49,11.67c-0.9,4.88-5.57,6.89-9.84,4.31
					c-2.32-1.4-4.15-3.34-5.8-5.42c-2.79-3.53-5.95-6.7-9.24-9.74c-5.61-5.19-12.03-8.92-19.43-11.1
					c-11.23-3.31-22.52-3.93-33.93-1.36c-6.26,1.41-12.43,3.26-17.82,6.91c-5.81,3.94-8.75,8.75-6.72,16.89
					c1.26,5.07,3.29,9.75,5.9,14.21C318.35,283.77,335.81,298.81,356.84,310.02z"/>
				<path class="st1" d="M740.76,594.94c-9.13-10.22-15.97-21.78-20.6-34.67c-2.63-7.34-5.21-14.69-7.95-21.99
					c-4.06-10.83-8.25-21.62-14.27-31.56c-5.34-8.81-12.56-15.38-22.91-17.6c-5.89-1.26-11.68-1.07-16.53,3.42
					c-1.42,1.32-3.1,2.39-4.76,3.41c-2.01,1.23-4.14,1.76-6.23,0.08c-2.04-1.64-2.79-3.77-2.36-6.33c0.28-1.65,0.62-3.29,0.92-4.93
					c1.17-6.46-0.2-9.15-6.11-12.04c-7.36-3.61-15.21-4.63-23.25-4.02c-10.31,0.78-20.46,2.5-30.43,5.42
					c-8.68,2.55-17.12,5.86-25.96,7.86c-13.25,2.99-26.66,4.5-40.23,5.18c-14.57,0.74-29.12,0.75-43.63-0.38
					c-4.07-0.32-6.97,0.91-9.95,3.02c-0.46,0.32-0.89,0.67-1.33,1.02c-13.52,10.72-22.59,24.61-28.51,40.62
					c-4.69,12.68-6.75,25.84-6.86,39.38c-0.12,15.05,1.34,29.83,5.98,44.21c3.84,11.88,9.53,22.63,19.08,30.96
					c10.7,9.33,22.9,13.52,37.16,10.85c5.68-1.06,10.95-3.17,16.16-5.52c13.69-6.19,27.78-7.77,42.47-4.15
					c9.06,2.23,18.1,4.66,27.55,4.87c8.72,0.19,17.32-0.23,25.5-3.63c7.19-2.99,11.77-8.2,13.66-15.8
					c1.28-5.13,1.13-10.32,0.44-15.43c-1.24-9.26-2.96-18.46-4.45-27.69c-0.45-2.78-0.39-5.52,0.43-8.29
					c1.71-5.78,7.92-5.72,10.83-2.11c1.42,1.76,2.41,3.74,3.24,5.82c3.07,7.61,6.18,15.22,9.2,22.85c6.6,16.67,8.02,33.79,4.8,51.41
					c-1.2,6.55-3.13,12.87-5.22,19.58c6.38-0.98,12.3-2.39,18.18-4.01c27.03-7.44,52.43-18.71,76.67-32.67
					c3.38-1.95,6.85-3.83,9.94-6.19c10.49-7.98,14.35-18.93,6.23-31.47C745.56,601.1,743.37,597.86,740.76,594.94z"/>
				<path class="st1" d="M839.25,393.97c-14.19-11.5-30-20.35-46.51-28c-15.56-7.22-31.82-12.6-47.92-18.42
					c-7.41-2.68-14.75-5.56-22.24-8.39c-0.42,1.26-0.81,2.3-1.12,3.35c-8.48,28.35-23.13,53.07-43.66,74.36
					c-11.11,11.53-23.37,21.67-36.41,30.92c-2.01,1.43-4,2.89-6,4.34c2.58,0.19,4.85,1,7.21,1.26c11.95,1.34,23.7,3.61,35.05,7.67
					c13.54,4.84,25.34,12.25,34.4,23.65c6.25,7.86,10.51,16.77,13.55,26.25c2.98,9.28,5.84,18.61,8.32,28.03
					c3.94,14.98,11.85,26.91,25.19,35.13c5.69,3.51,10.07,8.38,13.07,14.43c0.62,1.25,1.28,2.51,2.14,3.6
					c4.48,5.66,6.97,5.88,12.47,2.81c4.69-2.62,8.48-6.38,12.08-10.31c12.31-13.43,23.29-27.89,33.16-43.2
					c4.31-6.68,8.01-13.68,11.05-21.36c-4.94-1.52-7.68-5.13-9.52-9.52c-1.35-3.22-2.18-6.62-2.87-10.04
					c-3-15.03-8.35-29.18-16.04-42.42c-9.62-16.57-22.45-29.87-39.81-38.44c-1.25-0.62-2.47-1.31-3.62-2.09
					c-2-1.33-3.71-2.92-4.65-5.24c-2.04-5.02,0.51-9.11,5.86-9.29c1.4-0.05,2.77,0.03,4.16,0.37c11.81,2.9,21.93,8.88,30.79,17.05
					c10.43,9.63,19.37,20.54,27.12,32.43c2.06,3.16,4.13,6.33,6.85,8.99c4.24,4.15,8.77,4.42,13.55,0.91
					c1.14-0.84,2.08-1.86,2.9-3.01c5.69-7.89,9.41-16.71,12.6-26.16c-5.23-6.65-8.98-13.86-13.67-20.47
					C851.68,406.03,846.04,399.47,839.25,393.97z M767.78,533.12c3.59,0.07,7.14,2.77,10.25,6.05c4.11,4.33,5.85,9.74,6.21,15.6
					c0.08,1.23-0.18,2.52-0.51,3.71c-0.68,2.41-2.09,3.35-4.63,3.31c-8.32-0.14-19.42-9.18-21.2-17.26
					C756.67,538.91,761,533.18,767.78,533.12z"/>
				<path class="st1" d="M312.59,454.23c-2.62,0.42-4.65,1.86-6.6,3.42c-1.75,1.4-3.49,2.81-5.14,4.32
					c-3.69,3.39-7.71,3.55-11.99,1.33c-4.26-2.2-7.18-5.7-9.37-9.87c-1.59-3.03-2.62-6.29-3.92-10.36
					c-2.54,8.7-1.88,16.27,2.4,23.31c4.76,7.83,12.07,12.69,20.26,16.3c7.43,3.27,15.28,5.16,23.26,6.53c9.3,1.59,18.7,2,28.02,0.95
					c12.68-1.43,24.78-5.24,36.28-10.82c6.89-3.34,13.82-6.57,20.99-9.31c13.52-5.18,27.41-9.37,40.82-14.86
					c12.52-5.13,24.92-10.48,36.42-17.7c14.69-9.22,26.25-21.19,32.85-37.5c4.84-11.97,6.54-24.44,6.39-37.3
					c-0.2-16.82-4.66-32.46-12.35-47.29c-0.45-0.86-0.79-1.81-1.98-2.29c-5.54,1.73-11.22,3.52-17.33,5.43
					c0.97,5.71-0.17,10.65-2.95,15.21c-2.14,3.52-5.19,6.22-8.36,8.77c-15.21,12.22-31.97,21.9-49.55,30.24
					c-16.73,7.94-33.8,15.08-50.21,23.76c-20.69,10.95-41.88,20.97-61.93,33.13c-0.94,0.57-2.04,0.88-3.05,1.36
					c-1.6,0.76-3.02,0.47-4.18-0.81c-1.27-1.41-0.66-2.85,0.11-4.26c0.68-1.25,1.58-2.33,2.65-3.23c1.93-1.62,3.9-3.19,5.89-4.71
					c12.23-9.34,25.45-17.19,38.38-25.49c15.85-10.18,31.72-20.33,48.24-29.42c10.75-5.91,21.61-11.63,32.09-18.01
					c5.49-3.34,10.63-7.14,16.26-11.95c-3.1,0.64-5.24,1.07-7.37,1.52c-13.15,2.74-26.41,4.69-39.83,5.3
					c-7.09,0.32-13.4,2.25-18.87,6.88c-10.46,8.87-20.96,17.68-31.48,26.47c-3.64,3.04-7.06,6.36-11.17,8.81
					c-1.45,0.86-2.97,1.3-4.26,0.18c-1.16-1-0.86-2.5-0.46-3.93c0.86-3.05,2.79-5.46,4.6-7.92c8.2-11.19,17.37-21.56,26.72-31.79
					c0.6-0.65,1.74-1.07,1.42-2.37c-3.81-1.14-7.36-0.58-10.81,1.33c-3.19,1.77-6.23,3.7-9.06,6.01
					c-7.32,5.97-13.45,13.03-19.2,20.47c-6.34,8.21-11.37,17.22-16.28,26.32c-2.96,5.47-6.72,10.25-11.69,14.09
					c-4.09,3.16-8.24,6.23-11.93,9.92c-4.12,4.12-5.52,8.91-4.7,14.53c0.22,1.52,0.48,3.03,0.72,4.55c0.41,2.58,1.68,4.18,4.38,4.93
					c4.88,1.36,9.86,1.9,14.85,2.41c6.25,0.65,12.54,1.05,18.77,1.87c3.29,0.43,6.62,1.11,9.71,2.42c3.07,1.31,3.68,3.82,1.56,6.38
					c-0.88,1.06-2.01,1.95-3.14,2.75c-5.29,3.74-10.07,7.98-13.87,13.29c-0.96,1.34-2.18,2.61-3.53,3.56
					c-3.61,2.54-6.53,1.33-8.01-2.86c-1.11-3.15-0.29-6.09,0.45-9.05C312.92,457.54,313.56,456,312.59,454.23z M345.65,453.76
					c1.02-2.54,2.88-4.44,4.71-6.36c5.44-5.71,11.82-10.2,18.5-14.33c3.08-1.91,6.07-3.97,9.12-5.93c2.32-1.49,3.89-3.42,4.71-6.13
					c1.88-6.18,5.06-11.77,8.54-17.17c4.79-7.43,11.43-12.53,19.88-15.2c6.79-2.14,13.68-3.93,20.84-4.12
					c5.58-0.15,8.44,2.68,8.92,8.27c0.45,5.25-0.43,10.28-2.43,15.14c-0.53,1.28-0.99,2.6-1.62,4.28
					c14.4,0.21,27.84-1.36,40.01-8.76c4.34-2.64,8.07-5.99,11.57-9.62c1.94-2.02,3.85-4.07,5.93-5.94c4.12-3.69,7.81-1.09,8.62,3.13
					c0.62,3.21,0.31,6.39-1.19,9.39c-3.08,6.18-7.87,10.77-13.45,14.66c-9.44,6.58-20.06,10.11-31.24,12.28
					c-8.83,1.72-17.77,1.84-26.77,1.86c-2.97,3.2-6,6.29-9.65,8.68c-6.38,4.2-13.27,5.98-20.7,3.56c-2.65-0.86-4.85-0.55-7.23,0.44
					c-11.83,4.91-23.57,10.03-34.91,16c-2.23,1.18-4.5,2.23-7.02,2.59C346.29,461.15,343.94,458.03,345.65,453.76z"/>
				<path class="st1" d="M439.3,665.67c-2.18-2.18-4.36-4.35-6.5-6.56c-7.69-7.96-13.18-17.21-16.42-27.83
					c-3.77-12.36-3.98-25.03-3.63-37.77c0.09-3.36,0.27-6.72,0.07-10.07c-0.76-12.72-1.18-25.45-0.48-38.17
					c0.59-10.81,2.71-21.31,7.93-30.95c6.6-12.21,16.09-22.01,26.38-31.47c-2.52-0.84-5.02-1.64-7.5-2.5
					c-7.1-2.46-13.96-1.91-20.66,1.44c-8.96,4.48-18.15,8.55-26.89,13.42c-10.94,6.1-22.4,10.52-34.66,12.94
					c0.58,1.11,0.13,1.79-0.88,2.36c-13.14,7.49-23.99,17.76-34.12,28.76c-9.82,10.66-17.6,22.72-22.02,36.67
					c-1.13,3.56-1.78,7.28-2.65,10.93c6.39,4.87,13.64,8.13,21.06,10.97c9.22,3.54,18.61,6.64,27.84,10.15
					c6.39,2.43,12.62,5.36,17.71,10.07c9.56,8.84,6.39,21.85-3.36,27.13c-4.6,2.49-9.08,2.17-13.35-0.94
					c-1.6-1.17-2.89-2.64-4.18-4.1c-4.83-5.49-10.15-10.37-16.5-14.11c-7.72-4.55-15.94-7.99-24.22-11.3
					c-1.47-0.59-2.84-1.69-5.02-1.57c2.02,1.86,3.74,3.43,5.44,5.01c14.22,13.17,29.91,24.22,47.12,33.18
					c19.96,10.38,40.8,18.5,62.39,24.76c9.75,2.83,19.59,5.3,29.46,7.12c4.34-4.26,4.79-7.99,1.68-12.75
					C442.16,668.73,440.78,667.16,439.3,665.67z"/>
				<path class="st1" d="M950.76,382.62c-14.01-15.64-30.33-27.92-50.24-35.27c-14.28-5.27-28.99-8.88-43.76-12.36
					c-0.37-0.09-1.01-0.28-1.25,0.49c0.91,0.39,1.78,0.82,2.69,1.13c12.81,4.45,24.24,11.24,34.35,20.26
					c15.81,14.09,29.67,30.09,44.27,45.36c0.76,0.8,1.5,1.72,1.92,2.72c0.54,1.29,0.8,2.83-0.24,3.97
					c-1.07,1.18-2.51,1.68-4.19,1.21c-1.91-0.53-3.59-1.53-5.28-2.49c-8.12-4.63-16.13-9.44-24.34-13.9
					c-7.04-3.82-12.67-8.98-17.25-15.54c-10.81-15.48-24.84-26.95-42.39-34.31c-16.52-6.93-33.66-11.62-51.02-15.65
					c-11.67-2.7-23.46-4.91-34.9-8.53c-26.88-8.49-50.51-22.16-69.26-43.6c-8.07-9.24-14.58-19.33-18.38-31.12
					c-2.47-7.69-4.43-15.48-5.95-23.44c-1.69,13.68-0.35,27.06,4.22,40.03c6.67,18.93,19.16,33.25,35.77,44.1
					c17.02,11.12,35.57,19.11,54.63,25.97c23.64,8.5,46.7,18.23,68.38,31.04c10.62,6.27,20.69,13.24,29.59,21.87
					c7.8,7.55,13.98,16.35,20.31,25.05c6.52,8.97,13.58,17.43,22.3,24.38c5.82,4.63,12.34,7.9,19.75,8.39
					c18.02,1.19,31.61-6.56,40.95-21.76c5.46-8.89,4.81-17.73-1.23-26.26C957.32,390.24,954.12,386.37,950.76,382.62z"/>
				<path class="st2" d="M321.92,539.28c10.13-11,20.98-21.27,34.12-28.76c1.01-0.58,1.46-1.25,0.88-2.36
					c-0.42-0.03-0.85-0.14-1.25-0.07c-15.12,2.65-30.11,1.52-44.95-1.9c-13.01-3-25.47-7.47-36.18-15.79
					c-8.14-6.32-14.61-13.96-17.15-24.16c-2.59-10.38-1.95-20.84,0.87-31.09c3.22-11.7,10.39-20.89,19.1-29.05
					c5.73-5.37,11.99-10.08,18.14-14.94c3.16-2.49,5.59-5.53,6.7-9.41c1.99-6.95,5.38-13.18,9.55-18.99
					c5.48-7.65,11.99-14.4,18.86-20.8c4.79-4.46,9.48-9.03,15.03-13.16c-9.35-4.75-17.68-10.07-25.47-16.32
					c-2.45,0.85-4.53,2.22-6.55,3.75c-5.63,4.27-10.1,9.67-14.55,15.06c-13.64,16.52-23.87,35.07-32.09,54.76
					c-14.69,35.19-20.85,72.02-20.78,109.99c0.01,6.42,0.54,12.84,1.72,19.19c2.99,16.13,9.96,30.44,19.71,43.47
					c8.27,11.05,17.8,20.81,29.61,28.16c0.87-3.65,1.52-7.36,2.65-10.93C304.32,562,312.1,549.94,321.92,539.28z"/>
				<path class="st2" d="M550.2,450.14c9.27-0.3,18.38-1.43,27.22-4.28c19.32-6.23,34.51-17.55,43.53-36.14
					c10.41-21.44,9.86-43.22,1.1-64.93c-9.05-22.43-24.16-40.38-42.56-55.76c-1.35-1.13-2.53-1.27-4.2-0.79
					c-9.8,2.83-19.3,6.45-28.48,10.89c-1.45,0.7-3.06,1.27-4.24,2.79c5.9,3.91,11.59,7.95,17.04,12.32
					c9.77,7.82,18.81,16.35,25.16,27.3c8.09,13.95,11.34,28.81,7.21,44.7c-6.57,25.26-27.93,33.43-47.51,30.47
					c-3.99-0.6-7.71-2.15-11.74-3.04c-6.85,12.24-15.48,22.77-26.87,31.97c1.76,0.47,2.82,0.84,3.9,1.03
					C523.13,449.08,536.57,450.59,550.2,450.14z"/>
				<path class="st1" d="M385.73,195.56c27.36-5.55,51.05-18.2,71.49-37.07c5.15-4.75,9.85-9.94,14.43-15.23
					c2.99-3.45,6.85-5.07,11.3-5.76c6.06-0.93,12.06-2.18,17.99-3.8c11.63-3.17,22.5-8.15,33.03-13.93
					c14.22-7.8,27.32-17.26,40.73-27.77c-7.34,0.78-13.82,1.66-20.23,2.95c-18.54,3.74-36.22,10-53.04,18.59
					c-23.34,11.91-46.67,23.83-69.89,35.96c-28.67,14.98-56.98,30.66-86.15,44.68c-3.12,1.5-6.13,3.21-9.19,4.82
					c8.65-0.22,17-0.82,25.38-1.01C369.69,197.81,377.75,197.18,385.73,195.56z"/>
				<path class="st2" d="M647.86,328.15c0.14,0.02,0.28,0.03,0.42,0.05c16.64,2.57,32.61,7.32,47.78,14.69
					c0.73,0.35,1.41,0.98,2.54,0.3c1.62-4.04,3.31-8.27,4.95-12.37c-0.22-0.34-0.27-0.49-0.38-0.56c-1.52-0.98-3.05-1.95-4.58-2.92
					c-9.63-6.09-18.32-13.25-25.7-21.97c-4.97-5.88-9.55-12.04-13.59-18.58c-1.34-2.18-3.11-3.37-5.52-4.01
					c-11.6-3.07-23.39-3.87-35.31-3.17c-1.46,0.08-2.97,0.22-4.46,0.96c10.32,12.68,18.54,26.41,25.38,40.99
					C641.98,327.07,642,327.06,647.86,328.15z"/>
				<path class="st1" d="M556.77,680.02c-9.95-1.3-19.7-3.67-29.44-6.04c-8.8-2.14-17.64-3.07-26.46-0.36
					c-5.16,1.59-10.55,2.77-14.82,6.45c-3.06,2.63-6.1,5.28-9.56,8.28c7.98,1.36,15.61,2.21,23.26,2.68
					c10.18,0.63,20.37,1.05,30.59,1.06c20.43,0.02,40.78-1.06,61.07-3.44c1.13-0.13,2.27-0.23,3.1-1.07
					c2.13-2.13,4.21-4.32,6.91-7.11C585.89,682.98,571.31,681.91,556.77,680.02z"/>
				<path class="st3" d="M404.65,418.91c2.31,0.63,4.55-0.63,6.05-3.37c1.12-2.05,1.33-4.23,0.82-6.46
					c-0.85-3.69-4.47-4.91-7.41-2.5c-2.09,1.71-2.81,4.05-2.77,7.33C401.34,416.19,402.62,418.36,404.65,418.91z"/>
			</g>
		</g>
		<g>
			<g>
				<path class="st0" d="M261.7,933.83c-18,0-34.23-9.02-45.68-23.48l10.26-38.29c1.07,24.81,17.79,57.3,35.42,57.3
					c15.99,0,24.71-13.3,24.64-27.47c-0.17-36.1-50.24-36.3-65.78-64.1c-5.77-10.33-6.43-23.86,0.08-34
					c7.62-11.88,23.8-19.6,42.08-19.6c18,0,34.23,9.02,45.68,23.48l-10.26,38.29c-0.73-16.94-14.03-57.29-35.42-57.29
					c-11.65,0.07-19.58,6.61-22.92,15.28c-3.13,8.15-2.03,17.77,2.41,25.23c15.13,25.4,66.16,29.98,66.05,71.21
					C308.2,924.86,282.16,933.83,261.7,933.83z"/>
				<path class="st0" d="M341.27,918.47c0,6.01,4.87,10.88,10.88,10.88v4.48h-43.8v-4.48c6.01,0,10.88-4.87,10.88-10.88l-0.01-58.03
					c0-6-4.87-10.87-10.88-10.87v-4.48c14.59,0,25.79-0.73,32.94-7.88v24.31c4.98-12.57,15.57-24.31,30-24.31
					c21.37,0,31.46,22.52,33.82,41.07l5.17,40.66c0.73,5.74,5.03,10.42,10.86,10.42v4.48h-26.37c-2.78,0-5.09-2.03-5.44-4.79
					l-6.41-50.35c-1.13-11.62-7.3-31.82-20.66-31.82c-11.59,0-20.98,17.31-20.98,38.65C341.28,896.5,341.28,907.49,341.27,918.47z"
					/>
				<path class="st0" d="M509.13,863.84c0,18.21,0,36.41,0,54.63c0,6,4.87,10.87,10.87,10.87v4.48h-32.93v-4.24
					c-7.02,2.69-15.28,4.24-24.13,4.24c-8.49,0-20.1-2.06-29.56-6.73c-21.41-10.56-22.6-32.27-1.15-43.56
					c17.95-9.45,46.18-11.63,54.85-19.68c0-12.24-10.8-22.17-24.13-22.17c-15.47,0-27.01,23.77-27.7,36.99l-8.02-26.31
					c8.95-9.34,21.65-15.16,35.72-15.16C478.68,837.21,509.13,844.28,509.13,863.84z M487.07,869.04
					c-9.48,7.43-28.99,9.34-40.08,18.48c-10.36,8.53-10.89,23.53-1.45,32.95c5.42,5.42,13.65,8.87,22.86,8.87
					c7.08,0,13.59-2.05,18.68-5.45C487.07,905.17,487.07,887.49,487.07,869.04z"/>
				<path class="st0" d="M550.54,784.17c0,44.77,0,89.53,0,134.3c0,6.01,4.87,10.88,10.87,10.88v4.48h-43.79v-4.48
					c6,0,10.87-4.87,10.87-10.88c0-37.02-0.01-74.04-0.01-111.06c0-6.01-4.87-10.88-10.87-10.88v-4.48
					C532.2,792.06,543.4,791.32,550.54,784.17z M614.27,923.76c2.18,3.33,5.55,5.59,9.51,5.59v4.48h-23.66
					c-3.61,0-6.72-1.68-8.71-4.71l-33.64-51.32l-2.45-3.74c19.08-12.28,42.28-26.05,42.28-36.85h23.27l-44.54,28.66L614.27,923.76z"
					/>
				<path class="st0" d="M660.22,929.35c15.48,0,27.01-23.78,27.7-36.99l8.03,26.31c-8.95,9.33-21.65,15.16-35.73,15.16
					c-25.51,0-46.19-21.63-46.19-48.31c0-26.68,20.68-48.31,46.19-48.31c41.52,0,51.02,48.56,4.87,49.96
					c-10.59,0.32-21.57-2.43-28.75-8.02c-0.17,2.08-0.26,4.21-0.26,6.36C636.08,909.72,646.89,929.35,660.22,929.35z M659.81,876.75
					c29.79-4.63,23.45-35.06,0.41-35.06c-11.08,0-20.41,13.55-23.25,32.02C642.92,877.01,651.73,878,659.81,876.75z"/>
				<path class="st0" d="M752.68,784.17c18.12,0,39.69,11.43,39.7,31.82c0,11.8-7.87,21.29-17.9,26.59
					c16.99,7.71,27.03,25.37,27.03,43.75c0,19.02-10.42,35.42-25.47,43.01c-5.7,2.87-12.07,4.48-18.78,4.48h-59v-4.48
					c6,0,10.87-4.87,10.87-10.88V799.53c0-6-4.87-10.87-10.87-10.87v-4.48H752.68z M744.93,788.65h-13.76c0,18.23,0,41.08,0,59.3
					c7.92-6.2,17.58-9.45,27.64-9.08c7.4-5.28,11.49-13.84,11.49-22.88C770.31,800.9,758.95,788.66,744.93,788.65L744.93,788.65z
					 M731.18,863.96c0,21.98,0,43.14,0,65.39h18.75c16.31,0,29.52-19.25,29.52-43.01c0-16.32-8.42-40.01-27.58-41.51
					C740.64,843.95,731.18,852.7,731.18,863.96z"/>
				<path class="st0" d="M850.04,929.35c15.48,0,27.01-23.78,27.7-36.99l8.03,26.31c-8.95,9.33-21.65,15.16-35.73,15.16
					c-25.51,0-46.19-21.63-46.19-48.31c0-26.68,20.68-48.31,46.19-48.31c41.52,0,51.02,48.56,4.87,49.96
					c-10.59,0.32-21.57-2.43-28.75-8.02c-0.17,2.08-0.26,4.21-0.26,6.36C825.91,909.72,836.71,929.35,850.04,929.35z M849.63,876.75
					c29.79-4.63,23.45-35.06,0.41-35.06c-11.08,0-20.41,13.55-23.25,32.02C832.74,877.01,841.55,878,849.63,876.75z"/>
				<path class="st0" d="M935.12,929.35c15.48,0,27.01-23.78,27.7-36.99l8.03,26.31c-8.95,9.33-21.65,15.16-35.73,15.16
					c-25.51,0-46.19-21.63-46.19-48.31c0-26.68,20.68-48.31,46.19-48.31c41.52,0,51.02,48.56,4.87,49.96
					c-10.59,0.32-21.57-2.43-28.75-8.02c-0.17,2.08-0.26,4.21-0.26,6.36C910.98,909.72,921.79,929.35,935.12,929.35z M934.7,876.75
					c29.79-4.63,23.45-35.06,0.41-35.06c-11.08,0-20.41,13.55-23.25,32.02C917.81,877.01,926.62,878,934.7,876.75z"/>
			</g>
		</g>
	</g>
	<g>
		<path class="st0" d="M900.14,576.38c16.64,9.2,31.84,21.57,45.19,36.77c17.4,19.82,27.68,43.77,32.36,75.4l1.13,5.66
			c2.61,13.09-4.76,26.12-17.33,30.62l0,0c-45.39,15.78-85.63,14.26-119.59-4.51c-14.4-7.96-27.63-19.11-39.32-33.15
			c-19.16-23.02-32.08-49.35-44.57-74.82c-2.38-4.85-4.76-9.71-7.18-14.54c-2.56-5.11-5.08-10.23-7.69-15.54l-12.02-24.35
			l19.05-1.75c50.52-4.63,103.66-5.39,149.97,20.2C900.13,576.38,900.14,576.38,900.14,576.38z"/>
		<path class="st4" d="M957.18,712.44c-52.87,18.37-104.93,13.87-144.51-33.66c-21.68-26.04-35.09-56.92-50.1-86.85
			c-3.69-7.36-7.3-14.75-11.22-22.68c68.77-6.3,134.17-4.3,184.11,52.57c17.25,19.65,25.41,42.79,29.24,68.66
			c-50.48-31.64-97.69-67.63-157.08-83.06C854.83,646.74,905.67,678.78,957.18,712.44z"/>
	</g>
</g>
</svg>
